<?xml version="1.0" standalone="no"?><!DOCTYPE svg PUBLIC "-//W3C//DTD SVG 1.1//EN" "http://www.w3.org/Graphics/SVG/1.1/DTD/svg11.dtd"><svg t="1650380863439" class="icon" viewBox="0 0 1065 1024" version="1.1" xmlns="http://www.w3.org/2000/svg" p-id="2749" xmlns:xlink="http://www.w3.org/1999/xlink" width="208.0078125" height="200"><defs><style type="text/css">@font-face { font-family: feedback-iconfont; src: url("//at.alicdn.com/t/font_1031158_u69w8yhxdu.woff2?t=1630033759944") format("woff2"), url("//at.alicdn.com/t/font_1031158_u69w8yhxdu.woff?t=1630033759944") format("woff"), url("//at.alicdn.com/t/font_1031158_u69w8yhxdu.ttf?t=1630033759944") format("truetype"); }
</style></defs><path d="M940.780802 690.895678C941.40651 724.655483 942.003777 792.715476 937.85135 828.779025 922.180202 962.936563 778.437951 1024 651.532941 1024L413.792245 1024C306.625486 1024 167.490723 973.858016 128.21331 832.590157 117.889123 795.388957 120.790134 726.617931 123.207644 691.066326 51.876903 668.711477 0 602.35796 0 524.144428 0 442.23353 57.053216 373.519387 133.674036 354.577491 156.939007 155.289412 327.643595 0 534.411732 0 741.634929 0 912.680813 156.000444 935.320076 355.971114 1009.238973 376.761693 1063.618709 444.195978 1063.618709 524.144428 1063.618709 602.187313 1011.912454 668.398622 940.780802 690.895678ZM782.16376 948.48839C834.865459 926.275747 880.883457 887.510277 888.420398 823.14765 891.947117 792.459504 891.662704 733.358516 891.12232 698.973003 889.899345 699.001444 888.676369 699.172092 887.396511 699.172092 848.460393 699.172092 811.970226 686.601044 782.16376 664.103988L782.16376 948.48839ZM552.642595 974.540607 651.532941 974.540607C674.001555 974.540607 702.755694 971.668037 732.391512 964.64304L732.391512 663.70581C702.357516 686.259749 665.46917 699.172092 627.073436 699.172092 600.736807 699.172092 575.56627 693.256305 552.642595 682.505499L552.642595 974.540607ZM413.792245 974.540607 502.870348 974.540607 502.870348 651.561382C470.475725 681.62382 427.756916 699.172092 383.217865 699.172092 355.601378 699.172092 328.781247 692.659038 304.549272 680.486168L304.549272 950.536163C304.549272 951.787579 304.008888 952.868348 303.809799 954.091323 340.15776 968.311965 378.951672 974.540607 413.792245 974.540607ZM176.193756 819.393401C189.845573 868.426175 218.941007 903.807133 254.777025 928.380402L254.777025 680.486168C230.516609 692.659038 203.696478 699.172092 176.079991 699.172092 174.913898 699.172092 173.776247 699.029886 172.638596 699.001444 170.334852 736.088879 168.799022 792.715476 176.193756 819.393401ZM936.486168 408.530608C933.272303 418.456616 924.199533 425.737585 913.135874 425.737585 899.398733 425.737585 888.24975 414.673925 888.24975 400.993667 888.24975 400.254194 888.164426 399.514721 888.135985 398.746806 887.880013 398.746806 887.652483 398.689923 887.396511 398.689923 873.659371 398.689923 862.510388 387.626264 862.510388 373.946006 862.510388 361.460282 871.981335 351.562715 884.068881 349.884679 859.040551 180.26086 711.999111 49.459393 534.411732 49.459393 356.426175 49.459393 209.100322 180.772803 184.527053 350.908566 194.054883 354.378402 200.966115 363.280524 200.966115 373.946006 200.966115 386.005111 192.149317 395.561382 180.687479 397.751361 180.659038 398.860571 180.516831 399.912899 180.516831 400.993667 180.516831 414.673925 169.367848 425.737585 155.630708 425.737585 143.998222 425.737585 134.726364 417.688701 131.939118 407.02322 84.100878 424.884346 49.772248 470.447284 49.772248 524.144428 49.772248 585.008777 93.628708 635.861793 151.563604 647.238307 151.70581 647.238307 151.848017 647.181424 151.990223 647.209866 152.160871 647.238307 152.274636 647.323631 152.445284 647.352072 160.124431 648.802577 167.974225 649.712699 176.079991 649.712699 208.190201 649.712699 238.906788 637.482946 262.569937 615.270303 263.593823 614.3033 264.902122 613.905122 266.039773 613.137207 267.490279 612.170203 268.827019 611.060993 270.39129 610.435285 271.841795 609.866459 273.320742 609.752694 274.799689 609.468281 276.420842 609.126986 278.013554 608.671925 279.69159 608.671925 281.25586 608.671925 282.763249 609.126986 284.299078 609.411399 285.89179 609.724253 287.427619 609.838018 288.935007 610.435285 290.499278 611.089435 291.779136 612.170203 293.229641 613.080324 294.395734 613.848239 295.704033 614.274858 296.75636 615.270303 320.391068 637.482946 351.107655 649.712699 383.217865 649.712699 423.661371 649.712699 460.777247 630.770803 485.037662 597.750472 485.834018 596.669703 486.943229 596.043995 487.881791 595.133874 488.791912 594.252194 489.41762 593.114543 490.469948 592.346628 490.782802 592.119098 491.152539 592.090657 491.465393 591.891568 492.972781 590.896123 494.622375 590.327297 496.27197 589.673147 497.665593 589.189646 498.973892 588.507055 500.395956 588.222642 501.988668 587.909788 503.58138 588.051994 505.230974 588.051994 506.795245 588.051994 508.302633 587.909788 509.838462 588.222642 511.317409 588.507055 512.65415 589.189646 514.076214 589.73003 515.697367 590.38418 517.31852 590.953005 518.797467 591.891568 519.110321 592.119098 519.480058 592.147539 519.821353 592.375069 520.902122 593.171425 521.499389 594.280635 522.437951 595.190757 523.319631 596.100878 524.485724 596.698145 525.253638 597.778913 531.084102 605.742473 537.710921 612.824353 544.906566 619.081435 545.162537 619.308966 545.390068 619.508055 545.617598 619.735585 568.171536 639.047217 596.669703 649.712699 627.073436 649.712699 672.095989 649.712699 712.738585 626.248639 735.776025 586.914343 736.003555 586.487724 736.430174 586.260193 736.686146 585.862015 737.624708 584.496834 738.819242 583.359182 740.013776 582.164648 741.20831 580.998556 742.345962 579.804022 743.711143 578.893901 744.137762 578.609488 744.365293 578.21131 744.763471 577.98378 745.702033 577.443395 746.725919 577.386513 747.721364 576.988335 749.314076 576.305744 750.878347 575.651594 752.584824 575.310299 754.177536 575.025886 755.713365 574.997445 757.277636 574.997445 758.870348 574.997445 760.406177 575.025886 761.970448 575.310299 763.676925 575.651594 765.241195 576.305744 766.833907 576.988335 767.829352 577.386513 768.853239 577.414954 769.791801 577.98378 770.21842 578.21131 770.44595 578.609488 770.844128 578.893901 772.237751 579.804022 773.346961 580.970114 774.569937 582.164648 775.764471 583.359182 776.959005 584.496834 777.869126 585.862015 778.125097 586.260193 778.551716 586.487724 778.779247 586.914343 801.816687 626.248639 842.430841 649.712699 887.396511 649.712699 957.106099 649.712699 1013.846462 593.370514 1013.846462 524.144428 1013.846462 472.239085 981.906899 427.586268 936.486168 408.530608ZM796.811021 503.467615C764.729252 503.467615 738.620153 477.557605 738.620153 445.674925 738.620153 413.792245 764.729252 387.853794 796.811021 387.853794 828.89279 387.853794 854.973447 413.792245 854.973447 445.674925 854.973447 477.557605 828.89279 503.467615 796.811021 503.467615ZM796.811021 424.941229C785.292301 424.941229 775.935118 434.241529 775.935118 445.674925 775.935118 457.07988 785.292301 466.38018 796.811021 466.38018 808.3013 466.38018 817.658482 457.07988 817.658482 445.674925 817.658482 434.241529 808.3013 424.941229 796.811021 424.941229ZM661.174536 380.487501C629.092767 380.487501 603.01211 354.54905 603.01211 322.66637 603.01211 290.812132 629.092767 264.902122 661.174536 264.902122 693.256305 264.902122 719.393845 290.812132 719.393845 322.66637 719.393845 354.54905 693.256305 380.487501 661.174536 380.487501ZM661.174536 301.989557C649.655816 301.989557 640.327075 311.261415 640.327075 322.66637 640.327075 334.099767 649.655816 343.400067 661.174536 343.400067 672.693256 343.400067 682.050439 334.099767 682.050439 322.66637 682.050439 311.261415 672.693256 301.989557 661.174536 301.989557ZM518.996556 522.608599C486.914787 522.608599 460.805688 496.670148 460.805688 464.787468 460.805688 432.904788 486.914787 406.966337 518.996556 406.966337 551.078325 406.966337 577.215865 432.904788 577.215865 464.787468 577.215865 496.670148 551.078325 522.608599 518.996556 522.608599ZM518.996556 444.053772C507.477836 444.053772 498.120653 453.354072 498.120653 464.787468 498.120653 476.220864 507.477836 485.521164 518.996556 485.521164 530.515276 485.521164 539.872459 476.220864 539.872459 464.787468 539.872459 453.354072 530.515276 444.053772 518.996556 444.053772ZM505.117209 192.149317C473.035441 192.149317 446.926342 166.182424 446.926342 134.299744 446.926342 102.417065 473.035441 76.478613 505.117209 76.478613 537.198978 76.478613 563.279636 102.417065 563.279636 134.299744 563.279636 166.182424 537.198978 192.149317 505.117209 192.149317ZM505.117209 113.566048C493.598489 113.566048 484.241307 122.866348 484.241307 134.299744 484.241307 145.733141 493.598489 155.061882 505.117209 155.061882 516.635929 155.061882 525.964671 145.733141 525.964671 134.299744 525.964671 122.866348 516.635929 113.566048 505.117209 113.566048ZM537.341184 295.391179C537.341184 327.3023 511.260527 353.240751 479.178758 353.240751 447.068548 353.240751 420.959449 327.3023 420.959449 295.391179 420.959449 263.53694 447.068548 237.598489 479.178758 237.598489 511.260527 237.598489 537.341184 263.53694 537.341184 295.391179ZM458.302855 295.391179C458.302855 306.853016 467.660038 316.153316 479.178758 316.153316 490.669037 316.153316 499.997778 306.853016 499.997778 295.391179 499.997778 283.986224 490.669037 274.685924 479.178758 274.685924 467.660038 274.685924 458.302855 283.986224 458.302855 295.391179ZM317.831352 313.934896C285.749583 313.934896 259.640484 288.024886 259.640484 256.142206 259.640484 224.259527 285.749583 198.321075 317.831352 198.321075 349.913121 198.321075 376.02222 224.259527 376.02222 256.142206 376.02222 288.024886 349.913121 313.934896 317.831352 313.934896ZM317.831352 235.40851C306.312632 235.40851 296.955449 244.70881 296.955449 256.142206 296.955449 267.575603 306.312632 276.847461 317.831352 276.847461 329.350072 276.847461 338.707255 267.575603 338.707255 256.142206 338.707255 244.70881 329.350072 235.40851 317.831352 235.40851ZM309.58338 445.674925C309.58338 477.557605 283.502722 503.467615 251.420953 503.467615 219.310743 503.467615 193.201644 477.557605 193.201644 445.674925 193.201644 413.820687 219.310743 387.910677 251.420953 387.910677 283.502722 387.910677 309.58338 413.820687 309.58338 445.674925ZM251.420953 424.998111C239.902233 424.998111 230.516609 434.26997 230.516609 445.674925 230.516609 457.07988 239.902233 466.38018 251.420953 466.38018 262.911232 466.38018 272.239973 457.07988 272.239973 445.674925 272.239973 434.26997 262.911232 424.998111 251.420953 424.998111Z" p-id="2750"></path></svg>